<svg width="60" height="60" viewBox="0 0 60 60" fill="none" xmlns="http://www.w3.org/2000/svg">
<circle cx="30" cy="30" r="30" fill="#4FBBDF"/>
<rect x="4.44141" y="5.14709" width="50.4118" height="50.4118" rx="25.2059" fill="#4FBBDF"/>
<rect x="4.44141" y="5.14709" width="50.4118" height="50.4118" rx="25.2059" stroke="white" stroke-dasharray="2 2"/>
<path d="M29.6467 16.2124C21.9165 16.2124 15.6475 22.0713 15.6475 29.3035C15.6475 33.4137 17.6759 37.084 20.8496 39.4831V44.4936L25.6276 41.8431C26.9018 42.2013 28.2483 42.393 29.6482 42.393C37.3785 42.393 43.6475 36.5325 43.6475 29.3035C43.6459 22.0713 37.3769 16.2124 29.6467 16.2124ZM31.1204 33.7656L27.4989 30.0042L20.526 33.8599L28.1698 25.7479L31.7913 29.5109L38.7658 25.6536L31.1204 33.7656Z" fill="white"/>
</svg>
